<svg xmlns="http://www.w3.org/2000/svg" viewBox="0 0 360 360" role="img" aria-label="Unique Market logo">
<rect width="360" height="360" rx="88" fill="#fff"/>
<circle cx="180" cy="165" r="112" fill="none" stroke="#123b78" stroke-width="13"/>
<path d="M92 103h96v19h-76v126h76v21H92z" fill="#123b78"/>
<path d="M202 112h72v19h-53v136h-19z" fill="#123b78"/>
<path d="M226 117l69-21 39 18-70 24zM260 139h53v34h-53z" fill="#171a1e"/>
<circle cx="286" cy="156" r="14" fill="#123b78" stroke="#fff" stroke-width="5"/>
<path d="M264 175l-25 57 24 5 26-56zM237 229h30v69h-30zM244 260l-33 32 20 20 39-34z" fill="#171a1e"/>
<path d="M201 190v91l-43-36v-55" fill="none" stroke="#123b78" stroke-width="9"/>
<circle cx="158" cy="190" r="8" fill="#fff" stroke="#123b78" stroke-width="4"/>
<circle cx="197" cy="214" r="8" fill="#fff" stroke="#123b78" stroke-width="4"/>
<circle cx="122" cy="220" r="8" fill="#fff" stroke="#123b78" stroke-width="4"/>
</svg>